HIERARCHY
ROOT Hips
{
	OFFSET 0.00000 0.00000 0.00000
	CHANNELS 6 Xposition Yposition Zposition Zrotation Yrotation Xrotation 
	JOINT LHipJoint
	{
		OFFSET 0 0 0
		CHANNELS 3 Zrotation Yrotation Xrotation
		JOINT LeftHip
		{
			OFFSET 1.34019 -1.87553 0.90315
			CHANNELS 3 Zrotation Yrotation Xrotation
			JOINT LeftKnee
			{
				OFFSET 2.55316 -7.01474 0.00000
				CHANNELS 3 Zrotation Yrotation Xrotation
				JOINT LeftAnkle
				{
					OFFSET 2.64657 -7.27139 0.00000
					CHANNELS 3 Zrotation Yrotation Xrotation
					JOINT LeftToe
					{
						OFFSET 0.24207 -0.66507 2.14489
						CHANNELS 3 Zrotation Yrotation Xrotation
						End Site
						{
							OFFSET 0.00000 -0.00000 1.12451
						}
					}
				}
			}
		}
	}
	JOINT RHipJoint
	{
		OFFSET 0 0 0
		CHANNELS 3 Zrotation Yrotation Xrotation
		JOINT RightHip
		{
			OFFSET -1.28320 -1.87553 0.90315
			CHANNELS 3 Zrotation Yrotation Xrotation
			JOINT RightKnee
			{
				OFFSET -2.60484 -7.15674 0.00000
				CHANNELS 3 Zrotation Yrotation Xrotation
				JOINT RightAnkle
				{
					OFFSET -2.60296 -7.15159 0.00000
					CHANNELS 3 Zrotation Yrotation Xrotation
					JOINT RightToe
					{
						OFFSET -0.31082 -0.85398 2.28998
						CHANNELS 3 Zrotation Yrotation Xrotation
						End Site
						{
							OFFSET -0.00000 -0.00000 1.21611
						}
					}
				}
			}
		}
	}
	JOINT lowerback
	{
		OFFSET 0 0 0
		CHANNELS 3 Zrotation Yrotation Xrotation
		JOINT Chest
		{
			OFFSET -0.00160 2.05581 -0.15156
			CHANNELS 3 Zrotation Yrotation Xrotation
			JOINT Chest2
			{
				OFFSET 0.04594 2.06326 -0.01617
				CHANNELS 3 Zrotation Yrotation Xrotation
				JOINT lowerneck
				{
					OFFSET 0 0 0
					CHANNELS 3 Zrotation Yrotation Xrotation
					JOINT Neck
					{
						OFFSET 0.03753 1.73883 0.26751
						CHANNELS 3 Zrotation Yrotation Xrotation
						JOINT Head
						{
							OFFSET -0.09795 1.76129 -0.31794
							CHANNELS 3 Zrotation Yrotation Xrotation
							End Site
							{
								OFFSET -0.03611 1.79987 -0.13846
							}
						}
					}
				}
				JOINT LeftCollar
				{
					OFFSET 0 0 0
					CHANNELS 3 Zrotation Yrotation Xrotation
					JOINT LeftShoulder
					{
						OFFSET 3.30667 1.29205 -0.22445
CHANNELS 3 Zrotation Xrotation Yrotation
						JOINT LeftElbow
						{
OFFSET 0 -4.927850 -0.000000
CHANNELS 3 Zrotation Xrotation Yrotation
							JOINT LeftWrist
							{
OFFSET 0 -3.440520 0.000000
CHANNELS 3 Zrotation Xrotation Yrotation
								JOINT lhand
								{
									OFFSET 0 0 0
CHANNELS 3 Zrotation Xrotation Yrotation
									JOINT LFingers
									{
OFFSET 0 -0.654330 0.000000
CHANNELS 3 Zrotation Xrotation Yrotation
										End Site
										{
OFFSET 0 -0.527530 0.000000
										}
									}
								}
								JOINT LThumb
								{
OFFSET 0 0.000000 0.000000
CHANNELS 3 Zrotation Xrotation Yrotation
									End Site
									{
OFFSET 0 -0.535590 0.535590
									}
								}
							}
						}
					}
				}
				JOINT RightCollar
				{
					OFFSET 0 0 0
					CHANNELS 3 Zrotation Yrotation Xrotation
					JOINT RightShoulder
					{
						OFFSET -3.20032 1.49783 -0.27688
CHANNELS 3 Zrotation Xrotation Yrotation
						JOINT RightElbow
						{
OFFSET 0 -5.091810 -0.000000
CHANNELS 3 Zrotation Xrotation Yrotation
							JOINT RightWrist
							{
OFFSET 0 -3.498650 -0.000000
CHANNELS 3 Zrotation Xrotation Yrotation
								JOINT rhand
								{
									OFFSET 0 0 0
CHANNELS 3 Zrotation Xrotation Yrotation
									JOINT RFingers
									{
OFFSET 0 -0.666410 0.000000
CHANNELS 3 Zrotation Xrotation Yrotation
										End Site
										{
OFFSET 0 -0.537280 0.000000
										}
									}
								}
								JOINT RThumb
								{
OFFSET 0 0.000000 0.000000
CHANNELS 3 Zrotation Xrotation Yrotation
									End Site
									{
OFFSET 0 -0.545480 0.545480
									}
								}
							}
						}
					}
				}
			}
		}
	}
}
MOTION
Frames: 4
Frame Time: 0.008333333333333333
1.300765 16.493270 4.180279 -1.070570 0.314676 -6.908608 0.000000 0.000000 0.000000 -11.626962 5.812441 -16.048262 8.604945 16.546640 54.713506 1.901105 4.919782 -28.187260 0.496855 -4.519118 -12.541895 0.000000 0.000000 0.000000 14.772718 -4.181009 -16.066220 -9.529369 -17.136549 57.903526 -2.193755 -6.948721 -31.143938 -0.415030 4.135155 -11.457334 -0.598991 0.144386 8.812879 2.252232 0.206687 2.351199 2.645507 0.105461 -2.514033 4.423680 1.548230 -23.696000 -6.143412 2.133546 20.008048 -2.604346 0.552577 10.438649 0.000000 0.000000 0.000000 51.689586 -41.043854 3.657293 54.513095 -54.661096 29.818387 -13.704755 14.456074 2.383806 0.000000 0.000000 0.000000 -7.125000 0.000000 0.000000 -29.636199 26.809333 -15.069675 0.000000 0.000000 0.000000 -68.495546 -41.480793 -3.672369 -54.259295 -54.575322 -29.611499 12.792905 1.576946 2.038528 0.000000 0.000000 0.000000 7.125000 0.000000 0.000000 30.276424 30.808782 12.064462
1.300795 16.493210 4.180638 -1.065311 0.316827 -6.909624 0.000000 0.000000 0.000000 -11.633387 5.811724 -16.044885 8.604736 16.546521 54.712819 1.901016 4.921246 -28.187379 0.497064 -4.519955 -12.544286 0.000000 0.000000 0.000000 14.766054 -4.181428 -16.063561 -9.529907 -17.136848 57.905379 -2.193964 -6.948362 -31.145014 -0.415090 4.135364 -11.457902 -0.603772 0.144057 8.810936 2.251097 0.205760 2.351796 2.647121 0.104983 -2.512300 4.426339 1.550591 -23.685601 -6.150136 2.137939 20.006643 -2.606438 0.554131 10.436647 0.000000 0.000000 0.000000 51.689257 -41.041762 3.660879 54.518384 -54.662889 29.822660 -13.707265 14.446123 2.368117 0.000000 0.000000 0.000000 -7.125000 0.000000 0.000000 -29.641996 26.823199 -15.062025 0.000000 0.000000 0.000000 -68.502837 -41.476878 -3.680408 -54.256486 -54.574366 -29.609198 12.792816 1.591738 2.031685 0.000000 0.000000 0.000000 7.125000 0.000000 0.000000 30.274273 30.802745 12.068586
1.300825 16.493151 4.180972 -1.059755 0.318411 -6.910467 0.000000 0.000000 0.000000 -11.639886 5.811724 -16.041953 8.604552 16.546401 54.712181 1.901099 4.921253 -28.187968 0.497100 -4.520075 -12.544651 0.000000 0.000000 0.000000 14.759217 -4.181253 -16.061420 -9.530618 -17.137295 57.907800 -2.194247 -6.947880 -31.146460 -0.415149 4.135672 -11.458766 -0.609196 0.144074 8.808648 2.250035 0.205254 2.352691 2.649130 0.104727 -2.510097 4.429888 1.553051 -23.671026 -6.157946 2.142505 20.003905 -2.609024 0.555759 10.433434 0.000000 0.000000 0.000000 51.689571 -41.039448 3.665058 54.525650 -54.665325 29.828589 -13.711777 14.436370 2.354084 0.000000 0.000000 0.000000 -7.125000 0.000000 0.000000 -29.648633 26.835434 -15.056327 0.000000 0.000000 0.000000 -68.511142 -41.473853 -3.689830 -54.253406 -54.573311 -29.606675 12.791515 1.602627 2.027412 0.000000 0.000000 0.000000 7.125000 0.000000 0.000000 30.272096 30.799032 12.070634
1.300855 16.493091 4.181301 -1.054137 0.319875 -6.911274 0.000000 0.000000 0.000000 -11.646401 5.811873 -16.039114 8.604372 16.546282 54.711554 1.901218 4.920954 -28.188656 0.497100 -4.520045 -12.544591 0.000000 0.000000 0.000000 14.752344 -4.180954 -16.059388 -9.531365 -17.137773 57.910340 -2.194546 -6.947372 -31.147984 -0.415209 4.136001 -11.459692 -0.614754 0.144164 8.806287 2.248989 0.204836 2.353647 2.651221 0.104518 -2.507796 4.433624 1.555531 -23.655576 -6.165985 2.147107 20.000886 -2.611713 0.557403 10.429967 0.000000 0.000000 0.000000 51.690019 -41.037087 3.669361 54.533330 -54.667895 29.834864 -13.716708 14.426658 2.340397 0.000000 0.000000 0.000000 -7.125000 0.000000 0.000000 -29.655447 26.847327 -15.051037 0.000000 0.000000 0.000000 -68.519658 -41.471014 -3.699542 -54.250268 -54.572235 -29.604105 12.789961 1.612697 2.023676 0.000000 0.000000 0.000000 7.125000 0.000000 0.000000 30.269915 30.795804 12.072248
